<mxfile host="app.diagrams.net" modified="2024-05-28T04:06:56.101Z" agent="Mozilla/5.0 (Windows NT 10.0; Win64; x64) AppleWebKit/537.36 (KHTML, like Gecko) Chrome/124.0.0.0 Safari/537.36" version="24.4.9" etag="Lf9iDAP-72P1ef-M7k61" type="github">
  <diagram name="Page-1" id="2N5iD_vCSqFtPDkQx7JU">
    <mxGraphModel>
      <root>
        <mxCell id="0" />
        <mxCell id="1" parent="0" />
      </root>
    </mxGraphModel>
  </diagram>
</mxfile>
